0
SECTION
2
HEADER
9
$ACADVER
1
AC1006
9
$INSBASE
10
0.0
20
0.0
30
0.0
9
$EXTMIN
10
0.0
20
0.0
9
$EXTMAX
10
0.0
20
0.0
0
ENDSEC
0
SECTION
2
TABLES
0
TABLE
2
LTYPE
70
1
0
LTYPE
2
CONTINUOUS
70
64
3
Solid line
72
65
73
0
40
0.0
0
ENDTAB
0
TABLE
2
LAYER
70
1
0
LAYER
2
PYDXF
70
64
62
7
6
continuous
0
ENDTAB
0
TABLE
2
STYLE
70
1
0
STYLE
2
STANDARD
70
0
40
0
41
40
50
50
71
0
42
1
3
ARIAL.TTF
4

0
ENDTAB
0
TABLE
2
VIEW
70
0
0
ENDTAB
0
ENDSEC
0
SECTION
2
BLOCKS
0
ENDSEC
0
SECTION
2
ENTITIES
0
LINE
8
0
10
-111.05195672719667
20
150.700015492256
11
-110.07862936642296
21
149.7351451679422
0
LINE
8
0
10
-110.07862936642296
20
149.7351451679422
11
-109.09691909183626
21
148.77880535869915
0
LINE
8
0
10
-109.09691909183626
20
148.77880535869915
11
-108.10690066447476
21
147.8310688935059
0
LINE
8
0
10
-108.10690066447476
20
147.8310688935059
11
-107.10864947807481
21
146.89200794616366
0
LINE
8
0
10
-107.10864947807481
20
146.89200794616366
11
-106.10224155332915
21
145.9616940297993
0
LINE
8
0
10
-106.10224155332915
20
145.9616940297993
11
-105.08775353209764
21
145.04019799141935
0
LINE
8
0
10
-105.08775353209764
20
145.04019799141935
11
-104.06526267157089
21
144.12759000651488
0
LINE
8
0
10
-104.06526267157089
20
144.12759000651488
11
-103.03484683838661
21
143.2239395737172
0
LINE
8
0
10
-103.03484683838661
20
143.2239395737172
11
-101.99658450269997
21
142.32931550950545
0
LINE
8
0
10
-101.99658450269997
20
142.32931550950545
11
-100.95055473220766
21
141.4437859429658
0
LINE
8
0
10
-100.95055473220766
20
141.4437859429658
11
-99.89683718612653
21
140.56741831060316
0
LINE
8
0
10
-99.89683718612653
20
140.56741831060316
11
-98.83551210912727
21
139.70027935120572
0
LINE
8
0
10
-98.83551210912727
20
139.70027935120572
11
-97.76666032522371
21
138.8424351007626
0
LINE
8
0
10
-97.76666032522371
20
138.8424351007626
11
-96.69036323161738
21
137.9939508874347
0
LINE
8
0
10
-96.69036323161738
20
137.9939508874347
11
-95.60670279249898
21
137.15489132657987
0
LINE
8
0
10
-95.60670279249898
20
137.15489132657987
11
-94.51576153280655
21
136.32532031583227
0
LINE
8
0
10
-94.51576153280655
20
136.32532031583227
11
-93.4176225319407
21
135.50530103023607
0
LINE
8
0
10
-93.4176225319407
20
135.50530103023607
11
-92.31236941743803
21
134.69489591743488
0
LINE
8
0
10
-92.31236941743803
20
134.69489591743488
11
-91.20008635860238
21
133.89416669291555
0
LINE
8
0
10
-91.20008635860238
20
133.89416669291555
11
-90.08085806009503
21
133.10317433530867
0
LINE
8
0
10
-90.08085806009503
20
133.10317433530867
11
-88.95476975548412
21
132.3219790817447
0
LINE
8
0
10
-88.95476975548412
20
132.3219790817447
11
-87.82190720075398
21
131.5506404232668
0
LINE
8
0
10
-87.82190720075398
20
131.5506404232668
11
-86.68235666777419
21
130.78921710030016
0
LINE
8
0
10
-86.68235666777419
20
130.78921710030016
11
-85.53620493772974
21
130.03776709817876
0
LINE
8
0
10
-85.53620493772974
20
130.03776709817876
11
-84.3835392945124
21
129.29634764272961
0
LINE
8
0
10
-84.3835392945124
20
129.29634764272961
11
-83.22444751807357
21
128.56501519591473
0
LINE
8
0
10
-83.22444751807357
20
128.56501519591473
11
-82.05901787773976
21
127.8438254515315
0
LINE
8
0
10
-82.05901787773976
20
127.8438254515315
11
-80.88733912549014
21
127.13283333097114
0
LINE
8
0
10
-80.88733912549014
20
127.13283333097114
11
-79.70950048919806
21
126.43209297903636
0
LINE
8
0
10
-79.70950048919806
20
126.43209297903636
11
-78.52559166583576
21
125.74165775981788
0
LINE
8
0
10
-78.52559166583576
20
125.74165775981788
11
-77.33570281464401
21
125.06158025263086
0
LINE
8
0
10
-77.33570281464401
20
125.06158025263086
11
-76.13992455026556
21
124.39191224801048
0
LINE
8
0
10
-76.13992455026556
20
124.39191224801048
11
-74.93834793584492
21
123.73270474376805
0
LINE
8
0
10
-74.93834793584492
20
123.73270474376805
11
-73.73106447609334
21
123.08400794110723
0
LINE
8
0
10
-73.73106447609334
20
123.08400794110723
11
-72.51816611032041
21
122.44587124080098
0
LINE
8
0
10
-72.51816611032041
20
122.44587124080098
11
-71.29974520543277
21
121.81834323942982
0
LINE
8
0
10
-71.29974520543277
20
121.81834323942982
11
-70.07589454889954
21
121.20147172568056
0
LINE
8
0
10
-70.07589454889954
20
121.20147172568056
11
-68.84670734168655
21
120.59530367670727
0
LINE
8
0
10
-68.84670734168655
20
120.59530367670727
11
-67.61227719115854
21
119.99988525455376
0
LINE
8
0
10
-67.61227719115854
20
119.99988525455376
11
-66.37269810395095
21
119.41526180263816
0
LINE
8
0
10
-66.37269810395095
20
119.41526180263816
11
-65.12806447881037
21
118.8414778422998
0
LINE
8
0
10
-65.12806447881037
20
118.8414778422998
11
-63.878471099406184
21
118.27857706940874
0
LINE
8
0
10
-63.878471099406184
20
118.27857706940874
11
-62.624013127112185
21
117.72660235103817
0
LINE
8
0
10
-62.624013127112185
20
117.72660235103817
11
-61.364786093759875
21
117.18559572219998
0
LINE
8
0
10
-61.364786093759875
20
117.18559572219998
11
-60.10088589436306
21
116.65559838264355
0
LINE
8
0
10
-60.10088589436306
20
116.65559838264355
11
-58.832408779815374
21
116.13665069371821
0
LINE
8
0
10
-58.832408779815374
20
116.13665069371821
11
-57.55945134956014
21
115.62879217529971
0
LINE
8
0
10
-57.55945134956014
20
115.62879217529971
11
-56.28211054423419
21
115.13206150278047
0
LINE
8
0
10
-56.28211054423419
20
115.13206150278047
11
-55.00048363828522
21
114.64649650412439
0
LINE
8
0
10
-55.00048363828522
20
114.64649650412439
11
-53.7146682325642
21
114.172134156986
0
LINE
8
0
10
-53.7146682325642
20
114.172134156986
11
-52.42476224689247
21
113.7090105858947
0
LINE
8
0
10
-52.42476224689247
20
113.7090105858947
11
-51.130863912604894
21
113.25716105950339
0
LINE
8
0
10
-51.130863912604894
20
113.25716105950339
11
-49.83307176506921
21
112.81661998790295
0
LINE
8
0
10
-49.83307176506921
20
112.81661998790295
11
-48.531484636181986
21
112.38742092000157
0
LINE
8
0
10
-48.531484636181986
20
112.38742092000157
11
-47.22620164684248
21
111.96959654097006
0
LINE
8
0
10
-47.22620164684248
20
111.96959654097006
11
-45.91732219940388
21
111.5631786697525
0
LINE
8
0
10
-45.91732219940388
20
111.5631786697525
11
-44.604945970103664
21
111.16819825664332
0
LINE
8
0
10
-44.604945970103664
20
111.16819825664332
11
-43.289172901472725
21
110.78468538093018
0
LINE
8
0
10
-43.289172901472725
20
110.78468538093018
11
-41.97010319472452
21
110.41266924860345
0
LINE
8
0
10
-41.97010319472452
20
110.41266924860345
11
-40.64783730212419
21
110.05217819013184
0
LINE
8
0
10
-40.64783730212419
20
110.05217819013184
11
-39.32247591933876
21
109.70323965830521
0
LINE
8
0
10
-39.32247591933876
20
109.70323965830521
11
-37.994119977768946
21
109.3658802261437
0
LINE
8
0
10
-37.994119977768946
20
109.3658802261437
11
-36.66287063686258
21
109.04012558487423
0
LINE
8
0
10
-36.66287063686258
20
109.04012558487423
11
-35.32882927641117
21
108.72600054197397
0
LINE
8
0
10
-35.32882927641117
20
108.72600054197397
11
-33.99209748882921
21
108.42352901928105
0
LINE
8
0
10
-33.99209748882921
20
108.42352901928105
11
-32.652777071417745
21
108.13273405117303
0
LINE
8
0
10
-32.652777071417745
20
108.13273405117303
11
-31.310970018611904
21
107.85363778281264
0
LINE
8
0
10
-31.310970018611904
20
107.85363778281264
11
-29.96677851421382
21
107.58626146846116
0
LINE
8
0
10
-29.96677851421382
20
107.58626146846116
11
-28.620304923610778
21
107.33062546986024
0
LINE
8
0
10
-28.620304923610778
20
107.33062546986024
11
-27.271651785979753
21
107.08674925468083
0
LINE
8
0
10
-27.271651785979753
20
107.08674925468083
11
-25.920921806478773
21
106.85465139504093
0
LINE
8
0
10
-25.920921806478773
20
106.85465139504093
11
-24.568217848425263
21
106.63434956609117
0
LINE
8
0
10
-24.568217848425263
20
106.63434956609117
11
-23.213642925462906
21
106.42586054466881
0
LINE
8
0
10
-23.213642925462906
20
106.42586054466881
11
-21.857300193716465
21
106.22920020801995
0
LINE
8
0
10
-21.857300193716465
20
106.22920020801995
11
-20.499292943936336
21
106.04438353259064
0
LINE
8
0
10
-20.499292943936336
20
106.04438353259064
11
-19.139724593632245
21
105.87142459288627
0
LINE
8
0
10
-19.139724593632245
20
105.87142459288627
11
-17.77869867919793
21
105.71033656039978
0
LINE
8
0
10
-17.77869867919793
20
105.71033656039978
11
-16.41631884802616
21
105.56113170260846
0
LINE
8
0
10
-16.41631884802616
20
105.56113170260846
11
-15.052688850615718
21
105.42382138203992
0
LINE
8
0
10
-15.052688850615718
20
105.42382138203992
11
-13.687912532670483
21
105.2984160554067
0
LINE
8
0
10
-13.687912532670483
20
105.2984160554067
11
-12.322093827190939
21
105.18492527280993
0
LINE
8
0
10
-12.322093827190939
20
105.18492527280993
11
-10.955336746559565
21
105.08335767701217
0
LINE
8
0
10
-10.955336746559565
20
105.08335767701217
11
-9.587745374619596
21
104.99372100277897
0
LINE
8
0
10
-9.587745374619596
20
104.99372100277897
11
-8.219423858748918
21
104.91602207629018
0
LINE
8
0
10
-8.219423858748918
20
104.91602207629018
11
-6.850476401928567
21
104.85026681461986
0
LINE
8
0
10
-6.850476401928567
20
104.85026681461986
11
-5.481007254807547
21
104.79646022528576
0
LINE
8
0
10
-5.481007254807547
20
104.79646022528576
11
-4.111120707763456
21
104.75460640586802
0
LINE
8
0
10
-4.111120707763456
20
104.75460640586802
11
-2.7409210829606536
21
104.72470854369696
0
LINE
8
0
10
-2.7409210829606536
20
104.72470854369696
11
-1.370512726405475
21
104.70676891561061
0
LINE
8
0
10
-1.370512726405475
20
104.70676891561061
11
2.4490303822108156e-15
21
104.70078888778107
0
LINE
8
0
10
2.4490303822108156e-15
20
104.70078888778107
11
0.3490239076579236
21
104.702311801535
0
LINE
8
0
10
0.3490239076579236
20
104.702311801535
11
0.6980212357939846
21
104.706880426821
0
LINE
8
0
10
0.6980212357939846
20
104.706880426821
11
1.0469654069104317
21
104.71449441572055
0
LINE
8
0
10
1.0469654069104317
20
104.71449441572055
11
1.39582984755766
21
104.72515318839893
0
LINE
8
0
10
1.39582984755766
20
104.72515318839893
11
1.744587990357813
21
104.73885593314935
0
LINE
8
0
10
1.744587990357813
20
104.73885593314935
11
2.0932132760280626
21
104.75560160645472
0
LINE
8
0
10
2.0932132760280626
20
104.75560160645472
11
2.4416791554031283
21
104.7753889330672
0
LINE
8
0
10
2.4416791554031283
20
104.7753889330672
11
2.789959091457165
21
104.79821640610525
0
LINE
8
0
10
2.789959091457165
20
104.79821640610525
11
3.1380265613246303
21
104.82408228716842
0
LINE
8
0
10
3.1380265613246303
20
104.82408228716842
11
3.485855058320079
21
104.85298460646973
0
LINE
8
0
10
3.485855058320079
20
104.85298460646973
11
3.8334180939568077
21
104.88492116298568
0
LINE
8
0
10
3.8334180939568077
20
104.88492116298568
11
4.180689199963991
21
104.91988952462378
0
LINE
8
0
10
4.180689199963991
20
104.91988952462378
11
4.52764193030241
21
104.95788702840797
0
LINE
8
0
10
4.52764193030241
20
104.95788702840797
11
4.87424986317835
21
104.9989107806812
0
LINE
8
0
10
4.87424986317835
20
104.9989107806812
11
5.22048660305579
21
105.04295765732591
0
LINE
8
0
10
5.22048660305579
20
105.04295765732591
11
5.566325782666464
21
105.09002430400191
0
LINE
8
0
10
5.566325782666464
20
105.09002430400191
11
5.911741065017883
21
105.14010713640182
0
LINE
8
0
10
5.911741065017883
20
105.14010713640182
11
6.256706145398971
21
105.19320234052405
0
LINE
8
0
10
6.256706145398971
20
105.19320234052405
11
6.601194753383257
21
105.24930587296325
0
LINE
8
0
10
6.601194753383257
20
105.24930587296325
11
6.945180654829515
21
105.30841346121822
0
LINE
8
0
10
6.945180654829515
20
105.30841346121822
11
7.288637653879541
21
105.37052060401723
0
LINE
8
0
10
7.288637653879541
20
105.37052060401723
11
7.631539594953124
21
105.43562257166094
0
LINE
8
0
10
7.631539594953124
20
105.43562257166094
11
7.973860364739835
21
105.50371440638244
0
LINE
8
0
10
7.973860364739835
20
105.50371440638244
11
8.315573894187724
21
105.5747909227249
0
LINE
8
0
10
8.315573894187724
20
105.5747909227249
11
8.65665416048851
21
105.6488467079364
0
LINE
8
0
10
8.65665416048851
20
105.6488467079364
11
8.997075189059375
21
105.7258761223822
0
LINE
8
0
10
8.997075189059375
20
105.7258761223822
11
9.336811055521009
21
105.80587329997414
0
LINE
8
0
10
9.336811055521009
20
105.80587329997414
11
9.67583588767182
21
105.88883214861742
0
LINE
8
0
10
9.67583588767182
20
105.88883214861742
11
10.014123867458274
21
105.97474635067455
0
LINE
8
0
10
10.014123867458274
20
105.97474635067455
11
10.351649232940954
21
106.0636093634464
0
LINE
8
0
10
10.351649232940954
20
106.0636093634464
11
10.688386280256516
21
106.15541441967049
0
LINE
8
0
10
10.688386280256516
20
106.15541441967049
11
11.024309365575055
21
106.25015452803638
0
LINE
8
0
10
11.024309365575055
20
106.25015452803638
11
11.35939290705307
21
106.347822473718
0
LINE
8
0
10
11.35939290705307
20
106.347822473718
11
11.693611386781525
21
106.44841081892315
0
LINE
8
0
10
11.693611386781525
20
106.44841081892315
11
12.026939352729215
21
106.55191190345988
0
LINE
8
0
10
12.026939352729215
20
106.55191190345988
11
12.359351420681017
21
106.6583178453199
0
LINE
8
0
10
12.359351420681017
20
106.6583178453199
11
12.690822276170953
21
106.76762054127877
0
LINE
8
0
10
12.690822276170953
20
106.76762054127877
11
13.02132667641005
21
106.87981166751302
0
LINE
8
0
10
13.02132667641005
20
106.87981166751302
11
13.35083945220861
21
106.99488268023401
0
LINE
8
0
10
13.35083945220861
20
106.99488268023401
11
13.679335509893018
21
107.1128248163386
0
LINE
8
0
10
13.679335509893018
20
107.1128248163386
11
14.00678983321664
21
107.2336290940765
0
LINE
8
0
10
14.00678983321664
20
107.2336290940765
11
14.333177485264978
21
107.35728631373426
0
LINE
8
0
10
14.333177485264978
20
107.35728631373426
11
14.658473610354655
21
107.48378705833582
0
LINE
8
0
10
14.658473610354655
20
107.48378705833582
11
14.982653435926311
21
107.61312169435973
0
LINE
8
0
10
14.982653435926311
20
107.61312169435973
11
15.305692274431129
21
107.74528037247272
0
LINE
8
0
10
15.305692274431129
20
107.74528037247272
11
15.627565525210843
21
107.88025302827975
0
LINE
8
0
10
15.627565525210843
20
107.88025302827975
11
15.948248676371241
21
108.01802938309055
0
LINE
8
0
10
15.948248676371241
20
108.01802938309055
11
16.267717306648773
21
108.15859894470225
0
LINE
8
0
10
16.267717306648773
20
108.15859894470225
11
16.58594708727038
21
108.3019510081985
0
LINE
8
0
10
16.58594708727038
20
108.3019510081985
11
16.902913783806177
21
108.44807465676467
0
LINE
8
0
10
16.902913783806177
20
108.44807465676467
11
17.21859325801506
21
108.5969587625192
0
LINE
8
0
10
17.21859325801506
20
108.5969587625192
11
17.53296146968284
21
108.74859198736095
0
LINE
8
0
10
17.53296146968284
20
108.74859198736095
11
17.845994478453076
21
108.90296278383279
0
LINE
8
0
10
17.845994478453076
20
108.90296278383279
11
18.157668445650213
21
109.06005939600097
0
LINE
8
0
10
18.157668445650213
20
109.06005939600097
11
18.467959636094935
21
109.21986986035014
0
LINE
8
0
10
18.467959636094935
20
109.21986986035014
11
18.776844419911765
21
109.3823820066948
0
LINE
8
0
10
18.776844419911765
20
109.3823820066948
11
19.0842992743285
21
109.54758345910575
0
LINE
8
0
10
19.0842992743285
20
109.54758345910575
11
19.390300785467634
21
109.71546163685284
0
LINE
8
0
10
19.390300785467634
20
109.71546163685284
11
19.694825650129346
21
109.88600375536282
0
LINE
8
0
10
19.694825650129346
20
109.88600375536282
11
19.997850677566188
21
110.05919682719312
0
LINE
8
0
10
19.997850677566188
20
110.05919682719312
11
20.2993527912491
21
110.23502766302074
0
LINE
8
0
10
20.2993527912491
20
110.23502766302074
11
20.59930903062482
21
110.41348287264682
0
LINE
8
0
10
20.59930903062482
20
110.41348287264682
11
20.897696552864396
21
110.5945488660162
0
LINE
8
0
10
20.897696552864396
20
110.5945488660162
11
21.194492634602742
21
110.77821185425246
0
LINE
8
0
10
21.194492634602742
20
110.77821185425246
11
21.489674673669157
21
110.96445785070796
0
LINE
8
0
10
21.489674673669157
20
110.96445785070796
11
21.489674673669157
21
110.96445785070796
0
LINE
8
0
10
21.489674673669157
20
110.96445785070796
11
27.5252398081525
21
114.86072939709422
0
LINE
8
0
10
27.5252398081525
20
114.86072939709422
11
33.58896557275666
21
118.7287481081394
0
LINE
8
0
10
33.58896557275666
20
118.7287481081394
11
39.68085196748164
21
122.56851398384352
0
LINE
8
0
10
39.68085196748164
20
122.56851398384352
11
45.800898992327426
21
126.38002702420657
0
LINE
8
0
10
45.800898992327426
20
126.38002702420657
11
51.94910664729403
21
130.16328722922856
0
LINE
8
0
10
51.94910664729403
20
130.16328722922856
11
58.12547493238145
21
133.91829459890945
0
LINE
8
0
10
58.12547493238145
20
133.91829459890945
11
64.33000384758968
21
137.64504913324927
0
LINE
8
0
10
64.33000384758968
20
137.64504913324927
11
70.56269339291873
21
141.34355083224807
0
LINE
8
0
10
70.56269339291873
20
141.34355083224807
11
76.82354356836859
21
145.01379969590573
0
LINE
8
0
10
76.82354356836859
20
145.01379969590573
11
83.11255437393928
21
148.65579572422234
0
LINE
8
0
10
83.11255437393928
20
148.65579572422234
11
89.42972580963077
21
152.26953891719788
0
LINE
8
0
10
89.42972580963077
20
152.26953891719788
11
95.77505787544307
21
155.8550292748324
0
LINE
8
0
10
95.77505787544307
20
155.8550292748324
11
102.14855057137619
21
159.4122667971258
0
LINE
8
0
10
102.14855057137619
20
159.4122667971258
11
108.55020389743012
21
162.94125148407812
0
LINE
8
0
10
108.55020389743012
20
162.94125148407812
11
114.98001785360489
21
166.4419833356894
0
LINE
8
0
10
114.98001785360489
20
166.4419833356894
11
121.43799243990047
21
169.91446235195957
0
LINE
8
0
10
121.43799243990047
20
169.91446235195957
11
127.92412765631684
21
173.35868853288872
0
LINE
8
0
10
127.92412765631684
20
173.35868853288872
11
134.43842350285405
21
176.77466187847676
0
LINE
8
0
10
134.43842350285405
20
176.77466187847676
11
140.98087997951208
21
180.16238238872376
0
LINE
8
0
10
140.98087997951208
20
180.16238238872376
11
147.55149708629094
21
183.52185006362967
0
LINE
8
0
10
147.55149708629094
20
183.52185006362967
11
154.15027482319056
21
186.8530649031945
0
LINE
8
0
10
154.15027482319056
20
186.8530649031945
11
160.77721319021103
21
190.15602690741827
0
LINE
8
0
10
160.77721319021103
20
190.15602690741827
11
167.4323121873523
21
193.430736076301
0
LINE
8
0
10
167.4323121873523
20
193.430736076301
11
174.11557181461438
21
196.6771924098426
0
LINE
8
0
10
174.11557181461438
20
196.6771924098426
11
180.82699207199732
21
199.89539590804318
0
LINE
8
0
10
180.82699207199732
20
199.89539590804318
11
187.56657295950103
21
203.08534657090266
0
LINE
8
0
10
187.56657295950103
20
203.08534657090266
11
194.3343144771256
21
206.24704439842105
0
LINE
8
0
10
194.3343144771256
20
206.24704439842105
11
201.13021662487094
21
209.38048939059843
0
LINE
8
0
10
201.13021662487094
20
209.38048939059843
11
207.9542794027371
21
212.4856815474347
0
LINE
8
0
10
207.9542794027371
20
212.4856815474347
11
214.80650281072406
21
215.56262086892988
0
LINE
8
0
10
214.80650281072406
20
215.56262086892988
11
221.6868868488319
21
218.61130735508402
0
LINE
8
0
10
221.6868868488319
20
218.61130735508402
11
228.59543151706055
21
221.63174100589708
0
LINE
8
0
10
228.59543151706055
20
221.63174100589708
11
235.53213681540993
21
224.6239218213691
0
LINE
8
0
10
235.53213681540993
20
224.6239218213691
11
242.4970027438802
21
227.5878498015
0
LINE
8
0
10
242.4970027438802
20
227.5878498015
11
249.4900293024712
21
230.52352494628985
0
LINE
8
0
10
249.4900293024712
20
230.52352494628985
11
256.5112164911831
21
233.4309472557386
0
LINE
8
0
10
256.5112164911831
20
233.4309472557386
11
263.5605643100158
21
236.31011672984633
0
LINE
8
0
10
263.5605643100158
20
236.31011672984633
11
270.6380727589693
21
239.16103336861295
0
LINE
8
0
10
270.6380727589693
20
239.16103336861295
11
277.74374183804366
21
241.9836971720385
0
LINE
8
0
10
277.74374183804366
20
241.9836971720385
11
284.87757154723874
21
244.77810814012298
0
LINE
8
0
10
284.87757154723874
20
244.77810814012298
11
292.03956188655474
21
247.54426627286642
0
LINE
8
0
10
292.03956188655474
20
247.54426627286642
11
299.22971285599147
21
250.28217157026876
0
LINE
8
0
10
299.22971285599147
20
250.28217157026876
11
306.4480244555491
21
252.99182403233004
0
LINE
8
0
10
306.4480244555491
20
252.99182403233004
11
313.6944966852275
21
255.67322365905028
0
LINE
8
0
10
313.6944966852275
20
255.67322365905028
11
320.9691295450267
21
258.3263704504294
0
LINE
8
0
10
320.9691295450267
20
258.3263704504294
11
328.27192303494667
21
260.95126440646743
0
LINE
8
0
10
328.27192303494667
20
260.95126440646743
11
335.6028771549876
21
263.54790552716446
0
LINE
8
0
10
335.6028771549876
20
263.54790552716446
11
342.9619919051492
21
266.1162938125204
0
LINE
8
0
10
342.9619919051492
20
266.1162938125204
11
350.34926728543167
21
268.6564292625352
0
LINE
8
0
10
350.34926728543167
20
268.6564292625352
11
357.7647032958349
21
271.16831187720896
0
LINE
8
0
10
357.7647032958349
20
271.16831187720896
11
365.20829993635897
21
273.6519416565417
0
LINE
8
0
10
365.20829993635897
20
273.6519416565417
11
372.68005720700387
21
276.1073186005333
0
LINE
8
0
10
372.68005720700387
20
276.1073186005333
11
380.1799751077697
21
278.53444270918385
0
LINE
8
0
10
380.1799751077697
20
278.53444270918385
11
387.7080536386562
21
280.9333139824934
0
LINE
8
0
10
387.7080536386562
20
280.9333139824934
11
395.2642927996635
21
283.3039324204618
0
LINE
8
0
10
395.2642927996635
20
283.3039324204618
11
402.84869259079176
21
285.6462980230892
0
LINE
8
0
10
402.84869259079176
20
285.6462980230892
11
410.4612530120407
21
287.9604107903754
0
LINE
8
0
10
410.4612530120407
20
287.9604107903754
11
418.1019740634106
21
290.2462707223207
0
LINE
8
0
10
418.1019740634106
20
290.2462707223207
11
425.77085574490116
21
292.5038778189248
0
LINE
8
0
10
425.77085574490116
20
292.5038778189248
11
433.4678980565126
21
294.73323208018786
0
LINE
8
0
10
433.4678980565126
20
294.73323208018786
11
441.19310099824486
21
296.93433350610985
0
LINE
8
0
10
441.19310099824486
20
296.93433350610985
11
448.9464645700979
21
299.10718209669074
0
LINE
8
0
10
448.9464645700979
20
299.10718209669074
11
456.7279887720718
21
301.2517778519306
0
LINE
8
0
10
456.7279887720718
20
301.2517778519306
11
464.53767360416646
21
303.36812077182947
0
LINE
8
0
10
464.53767360416646
20
303.36812077182947
11
472.375519066382
21
305.45621085638714
0
LINE
8
0
10
472.375519066382
20
305.45621085638714
11
480.24152515871833
21
307.5160481056038
0
LINE
8
0
10
480.24152515871833
20
307.5160481056038
11
488.1356918811755
21
309.54763251947935
0
LINE
8
0
10
488.1356918811755
20
309.54763251947935
11
496.05801923375344
21
311.5509640980138
0
LINE
8
0
10
496.05801923375344
20
311.5509640980138
11
504.00850721645213
21
313.5260428412073
0
LINE
8
0
10
504.00850721645213
20
313.5260428412073
11
511.9871558292718
21
315.4728687490596
0
LINE
8
0
10
511.9871558292718
20
315.4728687490596
11
519.9939650722122
21
317.3914418215709
0
LINE
8
0
10
519.9939650722122
20
317.3914418215709
11
528.0289349452735
21
319.28176205874115
0
LINE
8
0
10
528.0289349452735
20
319.28176205874115
11
536.0920654484554
21
321.14382946057026
0
LINE
8
0
10
536.0920654484554
20
321.14382946057026
11
544.1833565817583
21
322.9776440270583
0
LINE
8
0
10
544.1833565817583
20
322.9776440270583
11
552.3028083451819
21
324.7832057582053
0
LINE
8
0
10
552.3028083451819
20
324.7832057582053
11
560.4504207387264
21
326.5605146540113
0
LINE
8
0
10
560.4504207387264
20
326.5605146540113
11
568.6261937623917
21
328.30957071447614
0
LINE
8
0
10
568.6261937623917
20
328.30957071447614
11
576.8301274161778
21
330.0303739395999
0
LINE
8
0
10
576.8301274161778
20
330.0303739395999
11
585.0622217000847
21
331.72292432938264
0
LINE
8
0
10
585.0622217000847
20
331.72292432938264
11
593.3224766141125
21
333.3872218838243
0
LINE
8
0
10
593.3224766141125
20
333.3872218838243
11
601.610892158261
21
335.0232666029249
0
LINE
8
0
10
601.610892158261
20
335.0232666029249
11
609.9274683325303
21
336.6310584866843
0
LINE
8
0
10
609.9274683325303
20
336.6310584866843
11
618.2722051369205
21
338.21059753510275
0
LINE
8
0
10
618.2722051369205
20
338.21059753510275
11
626.6451025714315
21
339.76188374818014
0
LINE
8
0
10
626.6451025714315
20
339.76188374818014
11
635.0461606360633
21
341.2849171259164
0
LINE
8
0
10
635.0461606360633
20
341.2849171259164
11
643.475379330816
21
342.77969766831166
0
LINE
8
0
10
643.475379330816
20
342.77969766831166
11
651.9327586556894
21
344.2462253753657
0
LINE
8
0
10
651.9327586556894
20
344.2462253753657
11
660.4182986106837
21
345.68450024707886
0
LINE
8
0
10
660.4182986106837
20
345.68450024707886
11
668.9319991957988
21
347.09452228345094
0
LINE
8
0
10
668.9319991957988
20
347.09452228345094
11
677.4738604110346
21
348.4762914844818
0
LINE
8
0
10
677.4738604110346
20
348.4762914844818
11
686.0438822563913
21
349.8298078501717
0
LINE
8
0
10
686.0438822563913
20
349.8298078501717
11
694.6420647318688
21
351.15507138052044
0
LINE
8
0
10
694.6420647318688
20
351.15507138052044
11
703.2684078374672
21
352.4520820755282
0
LINE
8
0
10
703.2684078374672
20
352.4520820755282
11
711.9229115731863
21
353.7208399351948
0
LINE
8
0
10
711.9229115731863
20
353.7208399351948
11
720.6055759390264
21
354.96134495952043
0
LINE
8
0
10
720.6055759390264
20
354.96134495952043
11
729.316400934987
21
356.17359714850494
0
LINE
8
0
10
729.316400934987
20
356.17359714850494
11
738.0553865610688
21
357.3575965021484
0
LINE
8
0
10
738.0553865610688
20
357.3575965021484
11
746.822532817271
21
358.5133430204507
0
LINE
8
0
10
746.822532817271
20
358.5133430204507
11
755.6178397035943
21
359.640836703412
0
LINE
8
0
10
0
20
0
11
0
21
10
0
ENDSEC
0
EOF
